# xmcd CD database file
#
# Track frame offsets:
#	150
#	19080
#	38880
#	58880
#	75722
#	102197
#	120547
#	137342
#	157835
#	175587
#
# Disc length: 2568 seconds
#
# Revision: 2
# Processed by: cddbd v1.5.2PL0 Copyright (c) Steve Scherf et al.
# Submitted via: CDex 1.50
#
DISCID=710a060a
DTITLE=Straight Company - Plugged In
DYEAR=1996
DGENRE=Christian R&B
TTITLE0=One Step
TTITLE1=Respect Yourself
TTITLE2=Nice To Know
TTITLE3=Imagine
TTITLE4=Didn't It Rain
TTITLE5=Come Together
TTITLE6=Restore
TTITLE7=Feel His Love
TTITLE8=Found A Friend
TTITLE9=Greater Love
EXTD=YEAR: 1996
EXTT0=
EXTT1=
EXTT2=
EXTT3=
EXTT4=
EXTT5=
EXTT6=
EXTT7=
EXTT8=
EXTT9=
PLAYORDER=
